<mxfile host="app.diagrams.net" agent="Mozilla/5.0 (Windows NT 10.0; Win64; x64) AppleWebKit/537.36 (KHTML, like Gecko) Chrome/136.0.0.0 Safari/537.36" version="27.0.2">
  <diagram name="Page-1" id="vu6drCPfA8H1-gH52IWx">
    <mxGraphModel dx="872" dy="439" grid="1" gridSize="10" guides="1" tooltips="1" connect="1" arrows="1" fold="1" page="1" pageScale="1" pageWidth="850" pageHeight="1100" math="0" shadow="0">
      <root>
        <mxCell id="0" />
        <mxCell id="1" parent="0" />
        <mxCell id="ppPSVnRFCKgC6bI7YDjA-1" value="Hotel" style="swimlane;html=1;fontStyle=0;childLayout=stackLayout;horizontal=1;startSize=26;fillColor=none;horizontalStack=0;resizeParent=1;resizeLast=0;collapsible=1;marginBottom=0;swimlaneFillColor=#ffffff;rounded=0;shadow=0;comic=0;labelBackgroundColor=none;strokeWidth=1;fontFamily=Verdana;fontSize=10;align=center;" vertex="1" parent="1">
          <mxGeometry x="410" y="360" width="160" height="70" as="geometry" />
        </mxCell>
        <mxCell id="ppPSVnRFCKgC6bI7YDjA-2" value="&lt;p style=&quot;text-wrap-mode: nowrap; margin: 0px 0px 0px 4px;&quot;&gt;+&lt;span style=&quot;background-color: transparent;&quot;&gt;bookAccommodation()&lt;/span&gt;&lt;/p&gt;&lt;p style=&quot;text-wrap-mode: nowrap; margin: 0px 0px 0px 4px;&quot;&gt;&lt;span style=&quot;background-color: transparent; color: light-dark(rgb(0, 0, 0), rgb(255, 255, 255));&quot;&gt;+showDetails()&lt;/span&gt;&lt;/p&gt;" style="text;html=1;strokeColor=none;fillColor=none;align=left;verticalAlign=top;spacingLeft=4;spacingRight=4;whiteSpace=wrap;overflow=hidden;rotatable=0;points=[[0,0.5],[1,0.5]];portConstraint=eastwest;" vertex="1" parent="ppPSVnRFCKgC6bI7YDjA-1">
          <mxGeometry y="26" width="160" height="44" as="geometry" />
        </mxCell>
        <mxCell id="ppPSVnRFCKgC6bI7YDjA-3" value="AccommodationFactory" style="swimlane;html=1;fontStyle=0;childLayout=stackLayout;horizontal=1;startSize=26;fillColor=none;horizontalStack=0;resizeParent=1;resizeLast=0;collapsible=1;marginBottom=0;swimlaneFillColor=#ffffff;rounded=0;shadow=0;comic=0;labelBackgroundColor=none;strokeWidth=1;fontFamily=Verdana;fontSize=10;align=center;" vertex="1" parent="1">
          <mxGeometry x="150" y="190.5" width="210" height="70" as="geometry" />
        </mxCell>
        <mxCell id="ppPSVnRFCKgC6bI7YDjA-4" value="+ createAccommodation(type: String): Accommodation" style="text;html=1;strokeColor=none;fillColor=none;align=left;verticalAlign=top;spacingLeft=4;spacingRight=4;whiteSpace=wrap;overflow=hidden;rotatable=0;points=[[0,0.5],[1,0.5]];portConstraint=eastwest;" vertex="1" parent="ppPSVnRFCKgC6bI7YDjA-3">
          <mxGeometry y="26" width="210" height="44" as="geometry" />
        </mxCell>
        <mxCell id="ppPSVnRFCKgC6bI7YDjA-5" value="&lt;p style=&quot;margin:0px;margin-top:4px;text-align:center;&quot;&gt;&lt;i&gt;&amp;lt;&amp;lt;Interface&amp;gt;&amp;gt;&lt;/i&gt;&lt;br&gt;&lt;b&gt;Accommodation&lt;/b&gt;&lt;/p&gt;&lt;hr size=&quot;1&quot;&gt;&lt;p style=&quot;margin:0px;margin-left:4px;&quot;&gt;&lt;/p&gt;&lt;p style=&quot;margin:0px;margin-left:4px;&quot;&gt;+&lt;span style=&quot;background-color: transparent;&quot;&gt;bookAccommodation():&amp;nbsp;&lt;/span&gt;&lt;span style=&quot;background-color: transparent; color: light-dark(rgb(0, 0, 0), rgb(255, 255, 255));&quot;&gt;void&lt;/span&gt;&lt;/p&gt;&lt;p style=&quot;margin:0px;margin-left:4px;&quot;&gt;&lt;span style=&quot;background-color: transparent; color: light-dark(rgb(0, 0, 0), rgb(255, 255, 255));&quot;&gt;+showDetails(): void&lt;/span&gt;&lt;/p&gt;" style="verticalAlign=top;align=left;overflow=fill;fontSize=12;fontFamily=Helvetica;html=1;rounded=0;shadow=0;comic=0;labelBackgroundColor=none;strokeWidth=1" vertex="1" parent="1">
          <mxGeometry x="510" y="185.5" width="170" height="83" as="geometry" />
        </mxCell>
        <mxCell id="ppPSVnRFCKgC6bI7YDjA-6" value="AirBnB" style="swimlane;html=1;fontStyle=0;childLayout=stackLayout;horizontal=1;startSize=26;fillColor=none;horizontalStack=0;resizeParent=1;resizeLast=0;collapsible=1;marginBottom=0;swimlaneFillColor=#ffffff;rounded=0;shadow=0;comic=0;labelBackgroundColor=none;strokeWidth=1;fontFamily=Verdana;fontSize=10;align=center;" vertex="1" parent="1">
          <mxGeometry x="620" y="360" width="140" height="70" as="geometry" />
        </mxCell>
        <mxCell id="ppPSVnRFCKgC6bI7YDjA-7" value="&lt;p style=&quot;text-wrap-mode: nowrap; margin: 0px 0px 0px 4px;&quot;&gt;+&lt;span style=&quot;background-color: transparent;&quot;&gt;bookAccommodation()&lt;/span&gt;&lt;/p&gt;&lt;p style=&quot;text-wrap-mode: nowrap; margin: 0px 0px 0px 4px;&quot;&gt;&lt;span style=&quot;background-color: transparent; color: light-dark(rgb(0, 0, 0), rgb(255, 255, 255));&quot;&gt;+showDetails()&lt;/span&gt;&lt;/p&gt;" style="text;html=1;strokeColor=none;fillColor=none;align=left;verticalAlign=top;spacingLeft=4;spacingRight=4;whiteSpace=wrap;overflow=hidden;rotatable=0;points=[[0,0.5],[1,0.5]];portConstraint=eastwest;" vertex="1" parent="ppPSVnRFCKgC6bI7YDjA-6">
          <mxGeometry y="26" width="140" height="44" as="geometry" />
        </mxCell>
        <mxCell id="ppPSVnRFCKgC6bI7YDjA-8" value="Use" style="endArrow=open;endSize=12;dashed=1;html=1;rounded=0;entryX=0;entryY=0.5;entryDx=0;entryDy=0;" edge="1" parent="1" source="ppPSVnRFCKgC6bI7YDjA-3" target="ppPSVnRFCKgC6bI7YDjA-5">
          <mxGeometry width="160" relative="1" as="geometry">
            <mxPoint x="300" y="390" as="sourcePoint" />
            <mxPoint x="460" y="390" as="targetPoint" />
          </mxGeometry>
        </mxCell>
        <mxCell id="ppPSVnRFCKgC6bI7YDjA-9" value="" style="endArrow=block;dashed=1;endFill=0;endSize=12;html=1;rounded=0;exitX=0.5;exitY=0;exitDx=0;exitDy=0;entryX=0.5;entryY=1;entryDx=0;entryDy=0;" edge="1" parent="1" source="ppPSVnRFCKgC6bI7YDjA-1" target="ppPSVnRFCKgC6bI7YDjA-5">
          <mxGeometry width="160" relative="1" as="geometry">
            <mxPoint x="300" y="390" as="sourcePoint" />
            <mxPoint x="460" y="390" as="targetPoint" />
            <Array as="points">
              <mxPoint x="490" y="320" />
              <mxPoint x="595" y="320" />
            </Array>
          </mxGeometry>
        </mxCell>
        <mxCell id="ppPSVnRFCKgC6bI7YDjA-10" value="" style="endArrow=block;dashed=1;endFill=0;endSize=12;html=1;rounded=0;exitX=0.5;exitY=0;exitDx=0;exitDy=0;entryX=0.5;entryY=1;entryDx=0;entryDy=0;" edge="1" parent="1" source="ppPSVnRFCKgC6bI7YDjA-6" target="ppPSVnRFCKgC6bI7YDjA-5">
          <mxGeometry width="160" relative="1" as="geometry">
            <mxPoint x="300" y="390" as="sourcePoint" />
            <mxPoint x="460" y="390" as="targetPoint" />
            <Array as="points">
              <mxPoint x="690" y="320" />
              <mxPoint x="595" y="320" />
            </Array>
          </mxGeometry>
        </mxCell>
        <mxCell id="ppPSVnRFCKgC6bI7YDjA-11" value="retrun new Hotel()&lt;div&gt;return new AirBnB()&lt;/div&gt;" style="shape=note;whiteSpace=wrap;html=1;backgroundOutline=1;darkOpacity=0.05;align=left;" vertex="1" parent="1">
          <mxGeometry x="185" y="310" width="140" height="50" as="geometry" />
        </mxCell>
        <mxCell id="ppPSVnRFCKgC6bI7YDjA-12" value="" style="endArrow=none;dashed=1;html=1;rounded=0;entryX=0.5;entryY=1;entryDx=0;entryDy=0;exitX=0.5;exitY=0;exitDx=0;exitDy=0;exitPerimeter=0;" edge="1" parent="1" source="ppPSVnRFCKgC6bI7YDjA-11" target="ppPSVnRFCKgC6bI7YDjA-3">
          <mxGeometry width="50" height="50" relative="1" as="geometry">
            <mxPoint x="360" y="420" as="sourcePoint" />
            <mxPoint x="410" y="370" as="targetPoint" />
          </mxGeometry>
        </mxCell>
      </root>
    </mxGraphModel>
  </diagram>
</mxfile>
